<?xml version="1.0" standalone="no"?>
<!DOCTYPE svg PUBLIC "-//W3C//DTD SVG 20010904//EN"
 "http://www.w3.org/TR/2001/REC-SVG-20010904/DTD/svg10.dtd">
<svg version="1.0" xmlns="http://www.w3.org/2000/svg"
 width="1024.000000pt" height="1024.000000pt" viewBox="0 0 1024.000000 1024.000000"
 preserveAspectRatio="xMidYMid meet">
<metadata>
Created by potrace 1.11, written by Peter Selinger 2001-2013
</metadata>
<g transform="translate(0.000000,1024.000000) scale(0.100000,-0.100000)"
fill="#000000" stroke="none">
<path d="M4915 8090 c-1201 -81 -2240 -887 -2619 -2033 -343 -1033 -97 -2166
643 -2962 528 -569 1244 -904 2033 -951 92 -6 108 -9 94 -20 -12 -8 -14 -14
-6 -19 8 -5 8 -11 -1 -21 -6 -8 -9 -14 -5 -14 3 0 -3 -9 -14 -20 -13 -13 -18
-29 -15 -50 2 -16 -1 -30 -6 -30 -6 0 -7 -5 -4 -10 3 -5 0 -10 -7 -10 -9 0 -9
-3 2 -10 9 -6 10 -10 3 -10 -6 0 -10 -9 -8 -20 2 -10 -6 -31 -18 -47 -12 -15
-16 -24 -9 -19 6 4 12 3 12 -3 0 -5 -6 -12 -12 -14 -9 -4 -10 -6 -1 -6 14 -1
1 -54 -19 -79 -10 -12 -10 -14 -1 -8 9 5 11 2 7 -8 -3 -9 -11 -13 -18 -9 -6 4
-6 1 2 -9 10 -13 10 -17 -3 -22 -8 -3 -15 -11 -15 -18 0 -9 3 -8 10 2 8 12 10
11 10 -7 0 -15 -6 -23 -17 -23 -14 0 -15 -2 -4 -9 11 -7 11 -15 3 -40 -6 -17
-9 -31 -6 -31 3 0 -2 -7 -10 -16 -18 -18 -20 -30 -6 -39 6 -4 8 -11 4 -16 -3
-5 -10 -7 -15 -4 -5 4 -9 2 -9 -4 0 -5 5 -11 12 -13 7 -3 8 -9 3 -18 -5 -8 -9
-26 -9 -40 0 -14 -7 -31 -15 -38 -9 -8 -10 -11 -3 -7 15 7 16 -11 2 -20 -8 -5
-8 -11 0 -20 9 -10 7 -20 -5 -39 -11 -17 -13 -26 -6 -26 9 0 9 -5 1 -21 -7
-11 -9 -23 -6 -27 3 -3 6 1 6 8 0 7 2 11 5 8 10 -10 -7 -38 -19 -31 -7 4 -7 2
1 -7 9 -9 9 -19 2 -33 -8 -14 -8 -18 0 -13 7 5 11 -2 11 -16 0 -18 -2 -20 -10
-8 -14 22 -12 3 3 -21 10 -18 9 -23 -1 -26 -9 -4 -10 -8 -2 -18 6 -7 13 -26
16 -42 3 -21 2 -24 -6 -13 -5 8 -10 10 -10 4 0 -6 7 -17 15 -24 8 -7 15 -20
14 -29 0 -12 -2 -11 -9 4 -6 16 -8 13 -7 -15 0 -19 2 -29 4 -22 3 6 9 12 14
12 6 0 7 -4 4 -10 -3 -5 -2 -10 3 -10 17 0 32 -46 19 -59 -9 -9 -6 -13 11 -17
12 -4 20 -10 17 -14 -3 -5 0 -12 6 -16 8 -4 9 -3 5 4 -4 7 -1 12 6 12 20 -1
49 -26 40 -36 -4 -4 2 -2 12 6 13 10 17 10 12 3 -4 -8 -2 -13 4 -13 6 0 8 -5
4 -12 -4 -7 -3 -8 5 -4 6 4 9 12 6 17 -4 5 -1 9 4 9 6 0 11 -8 11 -17 1 -17 1
-17 11 0 9 15 13 16 25 6 12 -10 17 -10 27 0 9 10 8 11 -8 6 -19 -6 -19 -6 -2
8 13 11 21 45 33 138 75 614 217 1089 480 1609 400 793 1000 1443 1749 1895
591 356 1196 566 1885 655 86 11 134 21 133 28 -2 6 3 9 10 6 9 -3 13 5 13 26
0 18 -4 29 -11 26 -6 -2 -12 6 -13 17 -1 18 1 19 9 7 8 -12 9 -11 6 5 -2 11
-8 19 -15 18 -7 -2 -9 4 -5 14 4 11 -7 28 -38 55 -36 32 -49 38 -74 34 -19 -4
-25 -3 -16 3 16 10 7 16 -38 26 -22 5 -31 4 -27 -3 3 -6 -6 -4 -22 3 -26 14
-142 18 -142 5 0 -3 -20 -4 -45 -3 -26 1 -44 -1 -41 -5 2 -4 -12 -7 -32 -8
-64 -1 -113 -8 -119 -16 -2 -5 -14 -6 -25 -2 -11 3 -18 2 -15 -3 3 -4 -9 -9
-26 -10 -40 -2 -58 -6 -76 -17 -10 -6 -12 -5 -7 2 5 8 2 10 -8 6 -9 -3 -13
-11 -9 -18 4 -6 -1 -5 -10 3 -13 11 -17 11 -17 1 0 -8 -3 -10 -7 -7 -3 4 -12
2 -20 -4 -10 -9 -13 -8 -13 2 0 8 -6 6 -16 -7 -8 -10 -12 -12 -8 -4 5 12 4 12
-6 3 -7 -6 -18 -9 -25 -6 -7 2 -27 -3 -44 -12 -17 -8 -31 -13 -31 -9 0 4 -8 0
-17 -7 -11 -10 -14 -10 -9 -1 4 6 2 12 -3 12 -6 0 -11 -4 -11 -9 0 -5 -7 -12
-16 -15 -8 -3 -12 -2 -9 4 10 17 -7 11 -20 -6 -7 -10 -27 -17 -52 -18 -23 0
-39 -4 -37 -7 2 -4 -3 -9 -11 -13 -8 -3 -17 0 -21 6 -5 7 -12 5 -21 -7 -9 -14
-13 -15 -13 -4 0 11 -2 12 -9 1 -5 -8 -20 -15 -35 -15 -14 -1 -26 -6 -26 -10
0 -5 -4 -6 -8 -3 -5 3 -12 55 -16 115 -28 462 -162 924 -378 1305 -573 1009
-1653 1593 -2803 1516z m570 -709 c480 -82 888 -287 1229 -620 201 -197 337
-383 457 -626 101 -207 183 -455 205 -622 l7 -53 -585 0 -585 0 -23 63 c-54
152 -151 297 -282 423 -221 211 -478 314 -788 314 -310 0 -567 -103 -788 -314
-131 -126 -228 -271 -282 -423 l-23 -63 -585 0 -585 0 7 53 c28 220 155 559
297 794 122 202 332 442 514 590 354 286 776 458 1250 507 104 11 444 -3 560
-23z m-284 -1811 c238 -44 410 -283 371 -516 -33 -198 -187 -353 -385 -386
-294 -49 -568 225 -519 519 42 255 284 429 533 383z m4120 -267 c13 -17 13
-17 -6 -3 -11 8 -22 16 -24 17 -2 2 0 3 6 3 6 0 17 -8 24 -17z m57 -58 c-3 -3
-9 2 -12 12 -6 14 -5 15 5 6 7 -7 10 -15 7 -18z m-5328 -532 c56 -150 154
-296 282 -419 220 -211 481 -315 788 -315 306 0 569 105 784 312 134 128 224
259 282 411 l26 68 514 0 c350 0 514 -3 514 -10 0 -6 -6 -10 -12 -9 -7 1 -20
1 -28 0 -12 -1 -12 -3 -2 -10 10 -6 6 -10 -15 -16 -15 -5 -32 -9 -38 -10 -5 0
-9 -6 -8 -12 1 -6 -4 -14 -13 -17 -8 -3 -12 -1 -9 4 3 6 -1 7 -9 4 -9 -3 -14
-9 -12 -13 2 -3 -2 -12 -10 -19 -11 -10 -14 -10 -14 0 0 7 -10 2 -23 -12 -12
-14 -17 -19 -12 -11 9 12 7 12 -13 2 -12 -7 -20 -16 -17 -21 3 -5 1 -11 -5
-15 -5 -3 -10 -1 -10 6 0 6 -9 1 -21 -12 -11 -13 -17 -17 -13 -9 4 8 -5 3 -21
-12 -15 -16 -35 -28 -44 -28 -13 0 -13 -2 -2 -9 10 -7 5 -11 -18 -16 -17 -4
-29 -11 -25 -16 5 -8 -9 -13 -28 -10 -5 0 -7 -3 -5 -8 1 -5 -2 -9 -6 -9 -5 0
-23 -13 -39 -29 -17 -15 -27 -21 -23 -13 8 13 6 13 -8 1 -9 -7 -14 -17 -11
-22 3 -5 -1 -9 -8 -9 -8 0 -23 -7 -34 -16 -10 -8 -12 -12 -4 -8 13 7 13 5 2
-8 -8 -10 -20 -14 -29 -11 -9 4 -14 2 -11 -3 7 -10 -11 -27 -32 -32 -21 -5
-41 -23 -35 -32 3 -5 -3 -11 -13 -14 -10 -4 -36 -22 -58 -41 -21 -19 -43 -35
-47 -35 -5 0 -6 -3 -4 -7 2 -5 -7 -19 -21 -33 -14 -14 -21 -18 -16 -10 5 9 1
7 -8 -3 -10 -11 -18 -16 -18 -11 0 4 -8 -2 -17 -15 -29 -36 -77 -88 -63 -66 8
11 -5 1 -28 -23 -23 -23 -42 -47 -42 -54 0 -6 -3 -9 -6 -6 -3 3 -37 -27 -77
-67 -88 -88 -98 -101 -89 -110 4 -4 0 -5 -8 -3 -8 2 -14 -3 -12 -10 1 -8 -2
-11 -7 -8 -5 4 -22 -10 -38 -31 -15 -20 -38 -48 -50 -61 -13 -14 -20 -30 -16
-36 3 -6 3 -8 -2 -4 -10 9 -38 -19 -30 -31 3 -5 0 -13 -6 -17 -8 -5 -9 -3 -4
7 4 8 -1 5 -12 -6 -11 -11 -19 -22 -17 -24 1 -2 -8 -14 -22 -28 -13 -13 -21
-30 -18 -36 4 -7 4 -9 -1 -5 -12 11 -35 -11 -35 -34 0 -10 -4 -16 -10 -13 -9
6 -14 -8 -11 -28 1 -5 -2 -6 -6 -4 -5 3 -14 -1 -21 -9 -10 -11 -10 -14 0 -15
7 0 2 -5 -11 -10 -14 -6 -21 -15 -17 -24 3 -8 0 -17 -6 -21 -7 -5 -8 -2 -3 6
6 9 4 11 -4 6 -7 -5 -10 -14 -7 -22 3 -8 1 -13 -5 -11 -6 1 -16 -7 -22 -18 -7
-11 -16 -23 -22 -27 -7 -5 -7 -8 0 -8 6 0 2 -7 -9 -15 -10 -7 -15 -18 -11 -24
3 -6 -1 -11 -10 -11 -9 0 -14 -4 -11 -9 9 -14 -5 -42 -17 -34 -6 4 -8 0 -4
-11 4 -9 3 -15 -2 -12 -13 9 -34 -21 -25 -36 4 -7 4 -10 -1 -6 -9 9 -40 -30
-32 -39 3 -3 -5 -16 -19 -30 -13 -13 -22 -29 -19 -34 4 -5 1 -9 -4 -9 -6 0
-11 -7 -11 -15 0 -8 -5 -15 -11 -15 -6 0 -9 -6 -7 -12 3 -7 -6 -24 -18 -37
-13 -14 -21 -28 -18 -33 3 -4 0 -8 -7 -8 -7 0 -10 -3 -6 -6 3 -4 -1 -13 -9
-21 -21 -22 -205 -36 -369 -29 -333 15 -613 86 -910 231 -251 123 -436 257
-636 461 -284 292 -481 643 -579 1033 -16 64 -32 137 -36 164 l-6 47 585 0
586 0 21 -57z m991 -2690 c-12 -20 -14 -14 -5 12 4 9 9 14 11 11 3 -2 0 -13
-6 -23z"/>
<path d="M4850 1041 c0 -6 4 -13 10 -16 6 -3 7 1 4 9 -7 18 -14 21 -14 7z"/>
<path d="M4888 887 c7 -8 10 -16 7 -19 -3 -2 1 -5 9 -5 18 0 10 24 -11 31 -12
5 -13 4 -5 -7z"/>
<path d="M4976 797 c3 -10 9 -15 12 -12 3 3 0 11 -7 18 -10 9 -11 8 -5 -6z"/>
</g>
</svg>
